# xmcd
#
# Track frame offsets: 
#        150
#        24525
#        41925
#        54225
#        82875
#        101963
#        117675
#        133688
#        152100
#
# Disc length: 2281 seconds
#
# Revision: 0
# Processed by: cddbd v1.5.2PL0 Copyright (c) Steve Scherf et al.
# Submitted via: ExactAudioCopyFreeDBPlugin 1.0
#
DISCID=7908e709
DTITLE=The Traveling Ones - Meet Me There
DYEAR=2017
DGENRE=Country
TTITLE0=Wildfire Heart
TTITLE1=Your Tonight
TTITLE2=You Only Have to Break My Heart
TTITLE3=Red Lights
TTITLE4=Baby When it Rains
TTITLE5=I'm a Woman
TTITLE6=Here in the Light
TTITLE7=Upper Circle
TTITLE8=Ride With Me
EXTD=
EXTT0=
EXTT1=
EXTT2=
EXTT3=
EXTT4=
EXTT5=
EXTT6=
EXTT7=
EXTT8=
PLAYORDER=
